<?xml version="1.0" encoding="UTF-8" standalone="no"?>
<!-- Created with Inkscape (http://www.inkscape.org/) -->

<svg
   xmlns:dc="http://purl.org/dc/elements/1.1/"
   xmlns:cc="http://creativecommons.org/ns#"
   xmlns:rdf="http://www.w3.org/1999/02/22-rdf-syntax-ns#"
   xmlns:svg="http://www.w3.org/2000/svg"
   xmlns="http://www.w3.org/2000/svg"
   xmlns:sodipodi="http://sodipodi.sourceforge.net/DTD/sodipodi-0.dtd"
   xmlns:inkscape="http://www.inkscape.org/namespaces/inkscape"
   width="182mm"
   height="242mm"
   viewBox="0 0 644.88181 857.48029"
   id="svg4038"
   version="1.1"
   inkscape:version="0.91 r13725"
   sodipodi:docname="subnets.svg">
  <defs
     id="defs4040" />
  <sodipodi:namedview
     id="base"
     pagecolor="#ffffff"
     bordercolor="#666666"
     borderopacity="1.0"
     inkscape:pageopacity="0.0"
     inkscape:pageshadow="2"
     inkscape:zoom="0.53740115"
     inkscape:cx="208.54584"
     inkscape:cy="532.02773"
     inkscape:document-units="px"
     inkscape:current-layer="layer1"
     showgrid="false"
     inkscape:window-width="1301"
     inkscape:window-height="744"
     inkscape:window-x="65"
     inkscape:window-y="24"
     inkscape:window-maximized="1" />
  <metadata
     id="metadata4043">
    <rdf:RDF>
      <cc:Work
         rdf:about="">
        <dc:format>image/svg+xml</dc:format>
        <dc:type
           rdf:resource="http://purl.org/dc/dcmitype/StillImage" />
        <dc:title></dc:title>
      </cc:Work>
    </rdf:RDF>
  </metadata>
  <g
     inkscape:label="Camada 1"
     inkscape:groupmode="layer"
     id="layer1"
     transform="translate(0,-194.88197)">
    <path
       style="fill:#000000"
       d="M 516.57227 18.050781 A 111.42857 110 0 0 0 405.45117 121.97852 L 284.78516 121.97852 L 284.78516 154.83594 L 284.98438 154.83594 L 284.98438 405.91602 L 232.54492 405.91602 A 111.42857 110 0 0 0 125.14258 325.19336 A 111.42857 110 0 0 0 13.714844 435.19336 A 111.42857 110 0 0 0 125.14258 545.19336 A 111.42857 110 0 0 0 235.99414 446.32227 L 284.98438 446.32227 L 284.98438 751.38867 L 284.98438 752.39844 L 414.94141 752.39844 A 111.42857 110 0 0 0 525.14258 846.9082 A 111.42857 110 0 0 0 636.57227 736.9082 A 111.42857 110 0 0 0 525.14258 626.9082 A 111.42857 110 0 0 0 415.10742 720.4707 L 321.34961 720.4707 L 321.34961 446.32227 L 405.04688 446.32227 A 111.42857 110 0 0 0 515.71484 544.62305 A 111.42857 110 0 0 0 627.14258 434.62305 A 111.42857 110 0 0 0 515.71484 324.62305 A 111.42857 110 0 0 0 408.2793 405.91602 L 321.34961 405.91602 L 321.34961 154.83594 L 408.60352 154.83594 A 111.42857 110 0 0 0 516.57227 238.05078 A 111.42857 110 0 0 0 628 128.05078 A 111.42857 110 0 0 0 516.57227 18.050781 z M 556.63867 56.521484 L 579.38672 78.207031 L 536.75 122.93164 L 583.62109 166.47656 L 562.22852 189.50195 L 515.0625 145.68164 L 468.98438 194.01562 L 446.23633 172.32812 L 492.03516 124.28711 L 445.00977 80.599609 L 466.40234 57.574219 L 513.72266 101.53711 L 556.63867 56.521484 z M 164.5332 366.14648 L 187.28125 387.83203 L 144.64453 432.55664 L 191.51562 476.10156 L 170.12305 499.12695 L 122.95703 455.30664 L 76.878906 503.64062 L 54.130859 481.95312 L 99.929688 433.91211 L 52.904297 390.22461 L 74.296875 367.19922 L 121.61719 411.16211 L 164.5332 366.14648 z M 559.27148 368.41602 L 582.01953 390.10156 L 539.38281 434.82617 L 586.25391 478.37109 L 564.86133 501.39648 L 517.69531 457.57617 L 471.61719 505.91016 L 448.86914 484.22266 L 494.66797 436.18164 L 447.64258 392.49414 L 469.03516 369.46875 L 516.35547 413.43164 L 559.27148 368.41602 z M 569.79688 671.67969 L 592.54492 693.36523 L 549.9082 738.08984 L 596.7793 781.63477 L 575.38672 804.66016 L 528.2207 760.83984 L 482.14258 809.17383 L 459.39453 787.48633 L 505.19336 739.44531 L 458.16797 695.75781 L 479.56055 672.73242 L 526.88086 716.69531 L 569.79688 671.67969 z "
       transform="translate(-3.0517578e-5,194.88197)"
       id="path4048" />
  </g>
</svg>
